<?xml version="1.0" encoding="UTF-8" standalone="no"?>
<!DOCTYPE svg PUBLIC "-//W3C//DTD SVG 1.1//EN" "http://www.w3.org/Graphics/SVG/1.1/DTD/svg11.dtd">
<svg version="1.1" xmlns="http://www.w3.org/2000/svg" xmlns:xlink="http://www.w3.org/1999/xlink" preserveAspectRatio="xMidYMid meet" viewBox="208.41634995425056 13.336104989883836 44.663723026815916 44.66389125091831" width="40.66" height="40.66"><defs><path d="M214.63 52.11C214.33 52.42 214.14 52.84 214.14 53.31C214.14 54.24 214.9 55 215.84 55C216.08 55 216.31 54.95 216.52 54.86C216.52 54.86 240.45 44.49 240.72 44.36C241.28 44.11 241.71 43.61 241.88 43C242.14 42.07 243.43 37.42 245.75 29.05C246.22 29.51 246.48 29.77 246.53 29.82C247.34 30.64 248.66 30.64 249.47 29.82C250.28 29.01 250.28 27.7 249.47 26.88C248.28 25.69 238.73 16.14 237.53 14.95C236.72 14.13 235.41 14.13 234.59 14.95C233.78 15.76 233.78 17.07 234.59 17.89C234.65 17.94 234.9 18.19 235.37 18.66C226.98 20.99 222.32 22.29 221.39 22.54C220.78 22.72 220.29 23.16 220.03 23.74C218.98 26.16 210.6 45.5 209.55 47.92C209.47 48.12 209.42 48.34 209.42 48.58C209.42 49.52 210.18 50.27 211.11 50.27C211.59 50.27 212.03 50.08 212.33 49.76C213.76 48.32 225.23 36.86 226.66 35.42C226.47 34.92 226.36 34.39 226.36 33.82C226.36 31.48 228.26 29.59 230.6 29.59C232.93 29.59 234.83 31.48 234.83 33.82C234.83 36.16 232.93 38.06 230.6 38.06C230.03 38.06 229.49 37.95 228.99 37.75C228.99 37.75 216.07 50.68 214.63 52.11Z" id="dnhuSr4xj"></path></defs><g><g><use xlink:href="#dnhuSr4xj" opacity="1" fill="#ff4400" fill-opacity="1"></use><g><use xlink:href="#dnhuSr4xj" opacity="1" fill-opacity="0" stroke="#000000" stroke-width="0.02" stroke-opacity="0"></use></g></g></g></svg>